# Blender v2.75 (sub 0) OBJ File: ''
# www.blender.org
mtllib house.mtl
o Cube
v 1.500000 0.007802 -2.000000
v 1.500000 0.007802 2.000000
v -1.500000 0.007802 2.000000
v -1.499999 0.007802 -2.000001
v 1.500001 2.007802 -1.999999
v 1.499999 2.007802 2.000001
v -1.500000 2.007802 1.999999
v -1.500000 2.007802 -2.000000
v 0.000000 3.226002 -2.000000
v -0.000001 3.226002 2.000000
v 1.500001 2.007802 -1.999999
v 1.499999 2.007802 2.000001
v 0.000000 3.226002 -2.000000
v -1.500000 2.007802 -2.000000
v -0.000001 3.226002 2.000000
v -1.500000 2.007802 1.999999
v 1.563043 2.085427 -1.999999
v 1.563041 2.085427 2.000001
v 0.063043 3.303627 -2.000000
v 0.063041 3.303627 2.000000
v 1.577626 1.944760 -1.999999
v 1.577624 1.944760 2.000001
v 1.640668 2.022385 -1.999999
v 1.640666 2.022385 2.000001
v -0.063042 3.303627 -2.000000
v -1.563042 2.085427 -2.000000
v -0.063043 3.303627 2.000000
v -1.563043 2.085427 1.999999
v -1.577626 1.944760 1.999999
v -1.577625 1.944760 -2.000000
v -1.640668 2.022385 1.999999
v -1.640667 2.022385 -2.000000
vn 0.000000 -1.000000 -0.000000
vn 0.000000 0.000000 1.000000
vn 1.000000 0.000000 0.000000
vn -1.000000 -0.000000 -0.000000
vn 0.000000 0.000000 -1.000000
vn 0.000000 1.000000 -0.000000
vn 0.630400 0.776300 0.000000
vn 0.776300 -0.630400 0.000000
vn -0.630400 -0.776300 -0.000000
vn -0.630400 0.776300 -0.000000
vn -0.776300 -0.630400 -0.000000
vn 0.630400 -0.776300 0.000000
usemtl Material
s off
f 1//1 2//1 3//1 4//1
f 7//2 10//2 15//2 16//2
f 1//3 5//3 6//3 2//3
f 2//2 6//2 10//2 7//2 3//2
f 3//4 7//4 8//4 4//4
f 5//5 1//5 4//5 8//5 9//5
f 5//2 9//2 13//2 11//2
f 25//6 27//6 20//6 19//6
f 15//2 20//2 27//2
f 6//2 5//2 11//2 12//2
f 10//2 6//2 12//2 15//2
f 8//2 7//2 16//2 14//2
f 9//2 8//2 14//2 13//2
f 17//7 19//7 20//7 18//7
f 11//5 13//5 19//5 17//5
f 18//2 12//2 22//2 24//2
f 15//2 12//2 18//2 20//2
f 22//8 21//8 23//8 24//8
f 12//9 11//9 21//9 22//9
f 11//5 17//5 23//5 21//5
f 17//7 18//7 24//7 23//7
f 25//10 26//10 28//10 27//10
f 16//2 15//2 27//2 28//2
f 28//10 26//10 32//10 31//10
f 13//5 14//5 26//5 25//5
f 30//11 29//11 31//11 32//11
f 26//5 14//5 30//5 32//5
f 14//12 16//12 29//12 30//12
f 16//2 28//2 31//2 29//2
f 25//5 19//5 13//5
