# Blender v2.75 (sub 0) OBJ File: ''
# www.blender.org
mtllib fox.mtl
o Cube.005_Cube.006
v 0.022539 0.099085 0.019451
v 0.022539 0.137988 0.019451
v 0.022539 0.099085 -0.019451
v 0.022539 0.137988 -0.019451
v 0.061442 0.099085 0.014411
v 0.061442 0.126310 0.014411
v 0.061442 0.099085 -0.014411
v 0.061442 0.126310 -0.014411
v -0.282474 0.084289 -0.009857
v -0.286931 0.087914 -0.009857
v -0.282474 0.084289 0.009857
v -0.286931 0.087914 0.009857
v -0.250137 0.098813 -0.009857
v -0.254594 0.102438 -0.009857
v -0.250137 0.098813 0.009857
v -0.254594 0.102438 0.009857
v -0.313449 0.070378 0.000000
v -0.317906 0.074002 0.000000
v -0.237234 0.110235 0.000000
v -0.232777 0.106610 0.000000
vn -1.000000 0.000000 0.000000
vn 0.128500 0.000000 -0.991700
vn 1.000000 0.000000 0.000000
vn 0.128500 0.000000 0.991700
vn 0.000000 -1.000000 0.000000
vn 0.287500 0.957800 0.000000
vn 0.000000 0.000000 -1.000000
vn 0.000000 0.000000 1.000000
vn -0.409700 0.912200 0.000000
vn 0.409700 -0.912200 0.000000
vn 0.195000 0.239800 -0.951100
vn 0.195000 0.239800 0.951100
vn -0.316400 -0.389100 0.865100
vn -0.316400 -0.389100 -0.865100
usemtl None
s off
f 2//1 4//1 3//1 1//1
f 4//2 8//2 7//2 3//2
f 8//3 6//3 5//3 7//3
f 6//4 2//4 1//4 5//4
f 1//5 3//5 7//5 5//5
f 6//6 8//6 4//6 2//6
f 12//7 16//7 15//7 11//7
f 14//8 10//8 9//8 13//8
f 9//9 11//9 15//9 13//9
f 14//10 16//10 12//10 10//10
f 12//11 11//11 17//11 18//11
f 11//9 9//9 17//9
f 9//12 10//12 18//12 17//12
f 14//13 13//13 20//13 19//13
f 13//9 15//9 20//9
f 15//14 16//14 19//14 20//14
f 10//10 12//10 18//10
f 16//10 14//10 19//10
o Cube.004_Cube.005
v -0.030000 0.100667 0.030000
v -0.030000 0.160667 0.030000
v -0.030000 0.100667 -0.030000
v -0.030000 0.160667 -0.030000
v 0.030000 0.100667 0.030000
v 0.030000 0.160667 0.030000
v 0.030000 0.100667 -0.030000
v 0.030000 0.160667 -0.030000
v -0.206460 0.066310 0.031150
v -0.206460 0.124552 0.031150
v -0.206460 0.066310 -0.031150
v -0.206460 0.124552 -0.031150
v -0.004851 0.066310 0.031150
v -0.004851 0.124552 0.031150
v -0.004851 0.066310 -0.031150
v -0.004851 0.124552 -0.031150
v -0.207643 -0.019251 0.048196
v -0.184958 0.074433 0.048196
v -0.207643 -0.019251 -0.048196
v -0.184958 0.074433 -0.048196
v -0.007255 -0.021846 0.048196
v -0.022297 0.073365 0.048196
v -0.007255 -0.021846 -0.048196
v -0.022297 0.073365 -0.048196
v -0.156119 0.067450 -0.048196
v -0.051606 0.068735 -0.048196
v -0.036564 -0.026476 -0.048196
v -0.178804 -0.026234 -0.048196
v -0.051606 0.068735 0.048196
v -0.156119 0.067450 0.048196
v -0.178804 -0.026234 0.048196
v -0.036564 -0.026476 0.048196
v -0.184958 0.074433 0.016065
v -0.184958 0.074433 -0.016065
v -0.207643 -0.019251 -0.016065
v -0.207643 -0.019251 0.016065
v -0.156119 0.067450 -0.016065
v -0.156119 0.067450 0.016065
v -0.178804 -0.026234 -0.016065
v -0.178804 -0.026234 0.016065
v -0.022297 0.073365 -0.016065
v -0.022297 0.073365 0.016065
v -0.007255 -0.021846 0.016065
v -0.007255 -0.021846 -0.016065
v -0.051606 0.068735 -0.016065
v -0.051606 0.068735 0.016065
v -0.036564 -0.026476 -0.016065
v -0.036564 -0.026476 0.016065
v -0.286168 0.067613 0.020043
v -0.293078 0.082048 0.020043
v -0.286168 0.067613 -0.020043
v -0.293078 0.082048 -0.020043
v -0.194149 0.111660 0.020043
v -0.201059 0.126095 0.020043
v -0.194149 0.111660 -0.020043
v -0.201059 0.126095 -0.020043
vn -1.000000 0.000000 0.000000
vn 0.000000 0.000000 -1.000000
vn 1.000000 0.000000 0.000000
vn 0.000000 0.000000 1.000000
vn 0.000000 -1.000000 0.000000
vn 0.000000 1.000000 0.000000
vn -0.971900 0.235300 0.000000
vn 0.987700 0.156100 0.000000
vn 0.156100 -0.987700 0.000000
vn 0.235300 0.971900 0.000000
vn -0.156100 0.987700 0.000000
vn -0.902000 -0.431800 0.000000
vn -0.235300 -0.971900 0.000000
vn 0.971900 -0.235300 0.000000
vn -0.987700 -0.156100 0.000000
vn 0.902000 0.431800 0.000000
vn 0.431800 -0.902000 0.000000
vn -0.431800 0.902000 0.000000
usemtl None
s off
f 22//15 24//15 23//15 21//15
f 24//16 28//16 27//16 23//16
f 28//17 26//17 25//17 27//17
f 26//18 22//18 21//18 25//18
f 21//19 23//19 27//19 25//19
f 26//20 28//20 24//20 22//20
f 30//15 32//15 31//15 29//15
f 32//16 36//16 35//16 31//16
f 36//17 34//17 33//17 35//17
f 34//18 30//18 29//18 33//18
f 29//19 31//19 35//19 33//19
f 34//20 36//20 32//20 30//20
f 54//21 40//21 39//21 55//21
f 46//16 44//16 43//16 47//16
f 62//22 42//22 41//22 63//22
f 50//18 38//18 37//18 51//18
f 67//23 47//23 43//23 64//23
f 57//24 45//24 40//24 54//24
f 61//25 44//25 46//25 65//25
f 70//26 72//26 71//26 69//26
f 55//27 39//27 48//27 59//27
f 57//28 59//28 48//28 45//28
f 42//18 49//18 52//18 41//18
f 65//29 46//29 47//29 67//29
f 40//16 45//16 48//16 39//16
f 50//28 51//28 60//28 58//28
f 37//27 56//27 60//27 51//27
f 74//18 70//18 69//18 73//18
f 50//24 58//24 53//24 38//24
f 72//16 76//16 75//16 71//16
f 38//21 53//21 56//21 37//21
f 76//30 74//30 73//30 75//30
f 49//29 66//29 68//29 52//29
f 59//18 57//18 54//18 55//18
f 42//25 62//25 66//25 49//25
f 60//16 56//16 53//16 58//16
f 52//23 68//23 63//23 41//23
f 67//18 64//18 61//18 65//18
f 44//22 61//22 64//22 43//22
f 68//16 66//16 62//16 63//16
f 69//31 71//31 75//31 73//31
f 74//32 76//32 72//32 70//32
